<svg viewBox="0 0 430 100" xmlns="http://www.w3.org/2000/svg" xml:space="preserve" style="fill-rule:evenodd;clip-rule:evenodd;stroke-linejoin:round;stroke-miterlimit:2"><path d="M.921 1.018c3.572 9.717 4.144 17.649 4.144 27.653v42.515c0 10.004-.572 18.007-4.144 27.796H34.29c30.154 0 47.303-28.724 47.303-55.02 0-22.365-12.29-42.944-39.586-42.944H.921Zm29.582 1.786c16.792 0 24.724 22.294 24.724 45.017 0 23.651-8.575 47.803-24.724 47.803V2.804Zm73.456-1.786c1.572 3.287 3.215 7.074 4.93 11.289L76.592 98.982H90.24c-2.43-2.715-4.502-6.359-4.502-10.146 0-1.215.214-2.358.643-3.573l6.717-18.007c15.505.072 36.085 8.075 41.729 31.726h29.368L131.326 1.018h-27.367Zm7.503 17.149c8.36 20.364 18.078 47.017 21.793 66.382-5.716-9.504-17.149-20.937-38.585-21.366l16.792-45.016Zm62.809-17.149c3.644 9.717 4.215 17.649 4.215 27.581v42.802c0 9.932-.571 17.864-4.215 27.581h33.869c-3.572-9.717-4.144-17.649-4.144-27.581V28.599c0-9.932.572-17.864 4.144-27.581h-33.869Zm89.962.071h-.286c-24.152 0-46.589 17.078-48.09 45.588-.071.929-.071 1.858-.071 2.859 0 17.863 9.075 35.013 27.725 44.087 7.288 3.502 15.148 5.359 22.722 5.359 8.646 0 16.864-2.358 23.295-7.145l13.79 7.145c0-16.077.143-32.011.143-48.16h-35.513c14.005 8.503 18.578 16.935 19.65 23.723-2.858 2.572-6.574 3.573-10.575 3.573-5.574 0-11.719-2.001-16.792-4.645-16.22-8.503-25.581-27.081-25.581-42.087v-1.358c.5-14.934 6.217-20.722 13.577-20.722 12.719 0 30.297 17.65 33.226 35.013l18.793-28.725c-10.647-9.86-23.58-14.505-36.013-14.505Zm109.469-.071c-40.944 0-62.452 26.724-62.452 52.305 0 23.294 18.007 45.659 55.378 45.659 40.943 0 62.451-26.724 62.451-52.305 0-23.294-17.935-45.659-55.377-45.659Zm-19.079 7.359h.072c24.223 0 51.662 36.8 51.662 61.666 0 8.575-3.287 15.792-11.147 19.507-3.073 1.429-6.288 2.144-9.504 2.144-24.223 0-51.662-36.728-51.662-61.594 0-8.646 3.287-15.863 11.219-19.579 3.001-1.5 6.145-2.144 9.36-2.144Z" style="fill:#fff;fill-rule:nonzero"/></svg>